#!OML:ASF E:\Style4\Style4.ASF
:FULLY-SPECIFIED
:DEGREES
1772
root 0.128343 17.4677 -1.11761 1.19053 -0.470197 2.255
lowerback 7.88238 2.39452 0.134077
upperback 3.05937 3.20192 0.705848
thorax -1.28594 1.59484 0.368091
lowerneck 0.245753 -5.32124 -6.53036
upperneck 7.90221 -7.18016 3.10339
head 2.88888 -3.66894 1.9508
rclavicle -5.36719e-015 5.56597e-015
rhumerus -2.19014 -24.425 -56.4042
rradius 56.1518
rwrist 7.93224
rhand -28.6382 17.7237
rfingers 7.12502
rthumb -2.00231 -12.2467
lclavicle -5.36719e-015 5.56597e-015
lhumerus 3.20306 -16.1259 53.6311
lradius 54.3066
lwrist -7.76886
lhand -19.8389 30.9306
lfingers 7.12502
lthumb 6.4953 60.811
rfemur -17.8965 2.23734 15.6027
rtibia 40.6273
rfoot -22.3419 -12.1284
rtoes -12.6578
lfemur -16.67 -1.40374 -21.4703
ltibia 38.6656
lfoot -22.6765 7.21249
ltoes -14.9371
1773
root 0.129333 17.4662 -1.13061 1.12664 -0.455048 2.3646
lowerback 7.92278 2.3929 0.0869266
upperback 3.06256 3.19544 0.654055
thorax -1.3045 1.59157 0.340068
lowerneck 0.144177 -5.3178 -6.47959
upperneck 7.99972 -7.16884 3.06267
head 2.93561 -3.66291 1.9253
rclavicle 1.40143e-014 -7.15625e-015
rhumerus -0.964391 -22.7131 -57.7248
rradius 56.3278
rwrist 7.98553
rhand -28.2973 17.4283
rfingers 7.12502
rthumb -1.67301 -12.5449
lclavicle 1.40143e-014 -7.15625e-015
lhumerus 3.99361 -17.735 54.0807
lradius 54.4898
lwrist -7.4404
lhand -19.4979 30.7806
lfingers 7.12502
lthumb 6.82454 60.6507
rfemur -17.9058 2.19575 15.4804
rtibia 40.6784
rfoot -22.2638 -12.185
rtoes -13.0324
lfemur -16.6465 -1.40052 -21.601
ltibia 38.6694
lfoot -22.5798 7.19738
ltoes -14.8421
1774
root 0.129083 17.4641 -1.14482 1.08286 -0.474584 2.50453
lowerback 7.92514 2.40797 0.00715766
upperback 3.08002 3.20811 0.583449
thorax -1.28817 1.59783 0.311341
lowerneck 0.0129737 -5.31802 -6.44887
upperneck 8.08773 -7.16422 3.0781
head 2.98893 -3.65896 1.92115
rclavicle 3.98563e-014 -1.43125e-014
rhumerus 0.282699 -20.8753 -58.984
rradius 56.423
rwrist 7.97045
rhand -27.9254 17.4574
rfingers 7.12502
rthumb -1.31388 -12.5183
lclavicle 3.98563e-014 -1.43125e-014
lhumerus 4.75313 -19.3231 54.508
lradius 54.8367
lwrist -7.16814
lhand -19.466 31.0544
lfingers 7.12502
lthumb 6.8553 60.9234
rfemur -17.9545 2.16361 15.3283
rtibia 40.7359
rfoot -22.1653 -12.2213
rtoes -13.3967
lfemur -16.6496 -1.37391 -21.7542
ltibia 38.6581
lfoot -22.5208 7.17632
ltoes -14.5611
1775
root 0.128903 17.4638 -1.15706 1.03308 -0.511333 2.58718
lowerback 7.90129 2.42998 -0.0561601
upperback 3.09132 3.23198 0.551457
thorax -1.26514 1.6096 0.313098
lowerneck -0.00425103 -5.32332 -6.41417
upperneck 8.09573 -7.17171 3.08273
head 2.99375 -3.66145 1.91576
rclavicle 2.38542e-015 -1.11319e-014
rhumerus 1.5206 -18.7826 -60.1442
rradius 56.5034
rwrist 7.86465
rhand -27.8272 17.4262
rfingers 7.12502
rthumb -1.21902 -12.55
lclavicle 2.38542e-015 -1.11319e-014
lhumerus 5.54657 -20.7177 55.1084
lradius 54.9094
lwrist -7.38241
lhand -19.2942 30.7126
lfingers 7.12502
lthumb 7.02117 60.5761
rfemur -17.9721 2.16155 15.2327
rtibia 40.7807
rfoot -22.1286 -12.1634
rtoes -13.3224
lfemur -16.6295 -1.35508 -21.8436
ltibia 38.6405
lfoot -22.5374 7.17218
ltoes -14.3617
1776
root 0.130371 17.4636 -1.16821 1.0113 -0.532092 2.52845
lowerback 7.86251 2.43238 0.0352976
upperback 3.08947 3.2422 0.568294
thorax -1.24165 1.61515 0.280216
lowerneck -0.0274763 -5.33024 -6.39424
upperneck 8.07239 -7.17952 3.07721
head 2.98921 -3.66455 1.9097
rclavicle 3.97569e-016 -7.15625e-015
rhumerus 2.70688 -16.4408 -61.2001
rradius 56.6666
rwrist 7.60134
rhand -27.7184 17.3438
rfingers 7.12502
rthumb -1.11397 -12.633
lclavicle 3.97569e-016 -7.15625e-015
lhumerus 6.48581 -21.98 55.7879
lradius 54.6405
lwrist -7.919
lhand -18.9126 30.2587
lfingers 7.12502
lthumb 7.38951 60.1096
rfemur -17.9957 2.14836 15.2893
rtibia 40.8031
rfoot -22.1294 -12.1589
rtoes -13.5131
lfemur -16.6421 -1.32311 -21.784
ltibia 38.6453
lfoot -22.5929 7.24054
ltoes -14.8813
1777
root 0.131531 17.4633 -1.18036 0.958661 -0.609912 2.50082
lowerback 7.86391 2.44044 0.105492
upperback 3.09538 3.25803 0.571888
thorax -1.23273 1.6234 0.243486
lowerneck -0.10266 -5.32797 -6.37405
upperneck 8.10653 -7.17187 3.06087
head 3.01256 -3.66031 1.89879
rclavicle -1.35174e-014 -1.19271e-014
rhumerus 3.89833 -13.8686 -62.1413
rradius 56.862
rwrist 7.25852
rhand -27.5474 17.2634
rfingers 7.12502
rthumb -0.948736 -12.7142
lclavicle -1.35174e-014 -1.19271e-014
lhumerus 7.47062 -23.1525 56.5367
lradius 54.3475
lwrist -8.60228
lhand -18.7637 30.4866
lfingers 7.12502
lthumb 7.53324 60.3325
rfemur -18.011 2.22194 15.3143
rtibia 40.8184
rfoot -22.1218 -12.1147
rtoes -13.4508
lfemur -16.6296 -1.22304 -21.7575
ltibia 38.6579
lfoot -22.5399 7.3089
ltoes -15.0845
1778
root 0.133218 17.4611 -1.19261 0.882373 -0.712665 2.4736
lowerback 7.88291 2.44436 0.154972
upperback 3.11124 3.26679 0.575127
thorax -1.22433 1.628 0.218036
lowerneck -0.10579 -5.29587 -6.32304
upperneck 8.05109 -7.12739 3.0318
head 2.98769 -3.63714 1.8821
rclavicle 1.45113e-014 7.95139e-016
rhumerus 5.14159 -11.2619 -63.0919
rradius 57.0141
rwrist 7.0655
rhand -27.2604 17.2052
rfingers 7.12502
rthumb -0.67163 -12.7735
lclavicle 1.45113e-014 7.95139e-016
lhumerus 8.34598 -24.4847 57.1915
lradius 54.2571
lwrist -9.12849
lhand -18.8431 30.8546
lfingers 7.12502
lthumb 7.45662 60.7032
rfemur -18.0105 2.26566 15.3373
rtibia 40.8337
rfoot -22.0792 -12.0471
rtoes -13.3008
lfemur -16.5926 -1.11457 -21.7315
ltibia 38.6721
lfoot -22.4841 7.18928
ltoes -14.3602
1779
root 0.135916 17.4608 -1.20507 0.824576 -0.815552 2.50103
lowerback 7.90463 2.44737 0.154445
upperback 3.11451 3.27046 0.560804
thorax -1.23215 1.62984 0.202396
lowerneck -0.102724 -5.25951 -6.24642
upperneck 7.98748 -7.07712 2.9883
head 2.95663 -3.61074 1.8565
rclavicle -6.36111e-015 -4.77083e-015
rhumerus 6.39366 -8.73182 -64.0752
rradius 57.1335
rwrist 7.14752
rhand -26.8979 17.1811
rfingers 7.12502
rthumb -0.321479 -12.7984
lclavicle -6.36111e-015 -4.77083e-015
lhumerus 9.22069 -26.0314 57.7019
lradius 54.2348
lwrist -9.54617
lhand -18.9883 30.5006
lfingers 7.12502
lthumb 7.31647 60.3541
rfemur -18.0389 2.25276 15.2888
rtibia 40.8631
rfoot -22.0213 -11.937
rtoes -13.2008
lfemur -16.5575 -1.02252 -21.7687
ltibia 38.658
lfoot -22.439 7.15685
ltoes -14.2107
1780
root 0.13815 17.4631 -1.21869 0.784846 -0.847638 2.5569
lowerback 7.92886 2.41414 0.13417
upperback 3.11565 3.22476 0.55418
thorax -1.24492 1.60692 0.209856
lowerneck -0.116221 -5.21037 -6.24455
upperneck 7.88804 -7.00791 2.96571
head 2.92028 -3.57619 1.85163
rclavicle 3.78685e-014 3.97569e-015
rhumerus 7.6833 -5.91331 -64.8469
rradius 57.239
rwrist 7.05082
rhand -26.5173 17.1704
rfingers 7.12502
rthumb 0.0461589 -12.8094
lclavicle 3.78685e-014 3.97569e-015
lhumerus 10.1303 -27.6024 58.1907
lradius 54.2699
lwrist -9.89911
lhand -18.8892 29.5327
lfingers 7.12502
lthumb 7.41211 59.3828
rfemur -18.0662 2.24778 15.2029
rtibia 40.8985
rfoot -21.9998 -11.805
rtoes -12.9704
lfemur -16.5423 -0.981883 -21.8423
ltibia 38.6342
lfoot -22.3685 7.22049
ltoes -14.4187
1781
root 0.139615 17.4654 -1.23096 0.756033 -0.807877 2.58446
lowerback 7.92834 2.36508 0.149972
upperback 3.10292 3.16073 0.543296
thorax -1.25605 1.57511 0.195216
lowerneck -0.0695379 -5.1825 -6.17588
upperneck 7.76343 -6.96955 2.90593
head 2.86089 -3.55624 1.82316
rclavicle -2.14687e-014 7.95139e-015
rhumerus 8.89116 -2.8532 -65.3953
rradius 57.421
rwrist 6.69454
rhand -26.1297 17.1279
rfingers 7.12502
rthumb 0.420475 -12.8514
lclavicle -2.14687e-014 7.95139e-015
lhumerus 11.0422 -29.3945 58.5363
lradius 54.4812
lwrist -10.1513
lhand -18.6569 29.109
lfingers 7.12502
lthumb 7.63632 58.9511
rfemur -18.0865 2.1982 15.1558
rtibia 40.9391
rfoot -21.9986 -11.7194
rtoes -12.7717
lfemur -16.5346 -1.03099 -21.8771
ltibia 38.6013
lfoot -22.3321 7.19184
ltoes -14.197
1782
root 0.13952 17.4634 -1.24419 0.730005 -0.830991 2.61275
lowerback 7.95181 2.34135 0.132653
upperback 3.09343 3.12776 0.52775
thorax -1.27874 1.55859 0.190537
lowerneck -0.0970065 -5.17863 -6.10721
upperneck 7.71192 -6.96098 2.86165
head 2.84248 -3.55067 1.79642
rclavicle 8.84592e-015 -7.15625e-015
rhumerus 10.0847 0.301785 -65.8413
rradius 57.7367
rwrist 6.27072
rhand -25.7746 16.9852
rfingers 7.12502
rthumb 0.763432 -12.9932
lclavicle 8.84592e-015 -7.15625e-015
lhumerus 12.0159 -31.3605 58.7071
lradius 54.7905
lwrist -10.2342
lhand -18.7015 29.3244
lfingers 7.12502
lthumb 7.59323 59.1681
rfemur -18.1494 2.1979 15.1303
rtibia 40.9811
rfoot -21.9101 -11.8052
rtoes -13.1223
lfemur -16.5533 -1.0009 -21.9061
ltibia 38.5804
lfoot -22.2892 7.14736
ltoes -13.9055
1783
root 0.139643 17.4617 -1.2566 0.716328 -0.910093 2.64155
lowerback 7.96926 2.34172 0.150312
upperback 3.10416 3.12857 0.479431
thorax -1.27365 1.55928 0.130545
lowerneck -0.266107 -5.17561 -6.06325
upperneck 7.73058 -6.95406 2.93424
head 2.88109 -3.54295 1.80863
rclavicle -7.85199e-015 5.56597e-015
rhumerus 11.4001 3.38042 -66.2534
rradius 57.9832
rwrist 5.92629
rhand -25.3245 16.9758
rfingers 7.12502
rthumb 1.19818 -13.0006
lclavicle -7.85199e-015 5.56597e-015
lhumerus 13.0806 -33.2044 58.9271
lradius 54.9362
lwrist -10.3995
lhand -19.1025 29.266
lfingers 7.12502
lthumb 7.20618 59.1233
rfemur -18.2293 2.23849 15.1004
rtibia 41.0247
rfoot -21.8758 -11.7916
rtoes -13.1921
lfemur -16.5777 -0.931938 -21.9389
ltibia 38.5733
lfoot -22.2635 7.21365
ltoes -14.1258
1784
root 0.138953 17.4644 -1.26696 0.735922 -0.971949 2.64211
lowerback 7.9517 2.34277 0.197192
upperback 3.09349 3.13249 0.428999
thorax -1.26963 1.56172 0.0527845
lowerneck -0.35675 -5.15085 -5.96995
upperneck 7.68921 -6.92188 2.98608
head 2.8801 -3.52197 1.80859
rclavicle 4.17448e-015 -1.74931e-014
rhumerus 12.6978 6.51086 -66.5119
rradius 58.2351
rwrist 5.47397
rhand -24.8743 17.2925
rfingers 7.12502
rthumb 1.63296 -12.681
lclavicle 4.17448e-015 -1.74931e-014
lhumerus 14.1135 -34.8417 59.2822
lradius 54.9422
lwrist -11.0152
lhand -19.1263 29.0834
lfingers 7.12502
lthumb 7.18323 58.9414
rfemur -18.3068 2.35433 15.0795
rtibia 41.062
rfoot -22.0488 -11.5284
rtoes -12.0141
lfemur -16.6395 -0.87773 -21.9324
ltibia 38.5808
lfoot -22.2561 7.35624
ltoes -14.7397
